<svg width="712" height="712" viewBox="0 0 712 712" fill="none" xmlns="http://www.w3.org/2000/svg">
<path d="M0 173C0 77.4547 77.4547 0 173 0H539C634.545 0 712 77.4547 712 173V539C712 634.545 634.545 712 539 712H173C77.4547 712 0 634.545 0 539V173Z" fill="white"/>
<path d="M164.577 643.191L163.74 643.629C182.609 628.373 185.419 540.452 79.8331 530.817C97.8991 499.502 133.63 495.086 148.885 492.677L174.579 487.458C217.938 474.29 258.486 435.669 273.34 418.004C322.292 359.792 331.821 285.52 328.341 253.804C319.107 194.789 344.801 150.627 355.239 137.78C390.89 90.8892 432.455 77.0252 448.781 75.9546C408.956 263.841 547.007 311.883 621.011 312.419C579.9 381.471 503.782 390.705 468.855 386.69C286.589 382.675 226.369 520.378 220.347 568.956C214.373 617.139 198.526 625.43 164.577 643.191Z" fill="#010101"/>
<path d="M652 222.803C652 311.612 580.006 383.606 491.197 383.606C402.388 383.606 330.394 311.612 330.394 222.803C330.394 133.994 402.388 62 491.197 62C580.006 62 652 133.994 652 222.803Z" fill="#010101"/>
<path d="M217.211 573.394C217.211 615.702 182.914 649.999 140.606 649.999C98.2975 649.999 64 615.702 64 573.394C64 531.086 98.2975 496.788 140.606 496.788C182.914 496.788 217.211 531.086 217.211 573.394Z" fill="#010101"/>
</svg>
