<svg width="712" height="712" viewBox="0 0 712 712" fill="none" xmlns="http://www.w3.org/2000/svg">
<path d="M0 173C0 77.4547 77.4547 0 173 0H539C634.545 0 712 77.4547 712 173V539C712 634.545 634.545 712 539 712H173C77.4547 712 0 634.545 0 539V173Z" fill="#E6001A"/>
<path d="M162.577 643.191L161.74 643.629C180.609 628.373 183.419 540.452 77.8331 530.817C95.8991 499.502 131.63 495.086 146.885 492.677L172.579 487.458C215.938 474.29 256.486 435.669 271.34 418.004C320.292 359.792 329.821 285.52 326.341 253.804C317.107 194.789 342.801 150.627 353.239 137.78C388.89 90.8892 430.455 77.0252 446.781 75.9546C406.956 263.841 545.007 311.883 619.011 312.419C577.9 381.471 501.782 390.705 466.855 386.69C284.589 382.675 224.369 520.378 218.347 568.956C212.373 617.139 196.526 625.43 162.577 643.191Z" fill="white"/>
<path d="M650 222.803C650 311.612 578.006 383.606 489.197 383.606C400.388 383.606 328.394 311.612 328.394 222.803C328.394 133.994 400.388 62 489.197 62C578.006 62 650 133.994 650 222.803Z" fill="white"/>
<path d="M215.211 573.394C215.211 615.702 180.914 649.999 138.606 649.999C96.2975 649.999 62 615.702 62 573.394C62 531.086 96.2975 496.788 138.606 496.788C180.914 496.788 215.211 531.086 215.211 573.394Z" fill="white"/>
</svg>
