<svg width="2377" height="488" viewBox="0 0 2377 488" fill="none" xmlns="http://www.w3.org/2000/svg">
<path d="M2101.08 453.618L2125.97 377.058C2150.21 394.071 2170.2 404.279 2185.94 407.682C2189.77 408.958 2194.66 410.021 2200.61 410.872C2206.57 411.723 2211.46 412.148 2215.29 412.148C2230.6 412.148 2242.93 408.745 2252.29 401.94C2261.65 395.135 2266.33 386.203 2266.33 375.144C2266.33 366.637 2263.77 360.257 2258.67 356.004C2253.57 351.751 2243.78 347.71 2229.32 343.882L2203.8 337.502L2177.01 329.208C2133.2 313.045 2111.29 285.186 2111.29 245.63C2111.29 214.581 2124.05 189.273 2149.57 169.708C2175.52 150.143 2208.91 140.36 2249.74 140.36C2265.9 140.36 2282.06 141.636 2298.23 144.188C2307.16 146.315 2314.81 148.229 2321.19 149.93C2332.25 153.333 2346.29 159.075 2363.3 167.156L2339.7 236.698C2328.64 230.743 2320.98 226.703 2316.73 224.576C2306.52 219.472 2296.52 215.644 2286.74 213.092C2277.38 210.115 2267.81 208.626 2258.03 208.626C2246.12 208.626 2236.34 211.603 2228.68 217.558C2221.45 223.087 2217.84 230.531 2217.84 239.888C2217.84 255.625 2230.81 266.684 2256.76 273.064L2283.55 280.082C2300.99 284.761 2318.43 290.928 2335.87 298.584C2348.63 305.815 2358.41 316.023 2365.22 329.208C2372.45 341.968 2376.06 356.429 2376.06 372.592C2376.06 407.469 2363.09 435.116 2337.14 455.532C2311.62 475.523 2276.75 485.518 2232.51 485.518C2214.65 485.518 2195.93 483.817 2176.37 480.414C2160.63 477.011 2148.72 474.034 2140.64 471.482C2132.98 468.505 2119.8 462.55 2101.08 453.618Z" fill="white"/>
<path d="M1978.04 183.106V55.506L2083.31 0V473.396H1983.14V437.668L1971.66 451.066C1962.3 459.998 1949.33 467.441 1932.74 473.396C1916.15 479.351 1899.35 482.328 1882.34 482.328C1840.23 482.328 1805.78 466.378 1778.98 434.478C1752.19 402.578 1738.79 361.533 1738.79 311.344C1738.79 262.005 1752.19 221.811 1778.98 190.762C1806.2 159.287 1841.08 143.55 1883.62 143.55C1892.12 143.55 1900.42 144.401 1908.5 146.102C1917 147.803 1925.51 150.355 1934.02 153.758C1942.52 156.735 1949.54 160.138 1955.07 163.966C1961.03 167.794 1968.68 174.174 1978.04 183.106ZM1914.88 225.214C1894.89 225.214 1878.51 232.87 1865.75 248.182C1852.99 263.494 1846.61 283.697 1846.61 308.792C1846.61 335.163 1852.99 356.217 1865.75 371.954C1878.51 387.266 1895.74 394.922 1917.43 394.922C1958.26 394.922 1978.68 368.339 1978.68 315.172C1978.68 295.607 1977.83 281.571 1976.13 273.064C1974.42 264.132 1971.02 256.476 1965.92 250.096C1954.01 233.508 1936.99 225.214 1914.88 225.214Z" fill="white"/>
<path d="M1605.55 186.296V151.206H1706.36V473.396H1605.55V437.668C1603 441.496 1600.45 444.686 1597.9 447.238C1595.77 449.365 1594.28 450.853 1593.43 451.704C1584.07 461.061 1571.31 468.505 1555.15 474.034C1538.99 479.563 1521.76 482.328 1503.47 482.328C1460.51 482.328 1426.06 467.016 1400.12 436.392C1374.17 405.768 1361.2 365.149 1361.2 314.534C1361.2 266.046 1375.02 225.639 1402.67 193.314C1430.31 160.989 1465.4 144.826 1507.94 144.826C1523.68 144.826 1540.48 147.591 1558.34 153.12C1569.82 157.373 1578.12 161.414 1583.22 165.242C1588.75 168.645 1596.19 175.663 1605.55 186.296ZM1538.56 226.49C1517.72 226.49 1500.92 234.359 1488.16 250.096C1475.4 265.833 1469.02 286.462 1469.02 311.982C1469.02 337.077 1475.4 357.28 1488.16 372.592C1500.92 387.904 1517.93 395.56 1539.2 395.56C1550.26 395.56 1560.47 393.221 1569.82 388.542C1579.18 383.438 1585.77 377.058 1589.6 369.402C1593.43 361.746 1596.19 353.452 1597.9 344.52C1599.6 335.163 1600.45 323.041 1600.45 308.154C1600.45 292.842 1599.81 281.571 1598.53 274.34C1597.26 266.684 1594.49 259.666 1590.24 253.286C1578.76 235.422 1561.53 226.49 1538.56 226.49Z" fill="white"/>
<path d="M1222.52 473.396V54.868L1328.43 0V473.396H1222.52Z" fill="white"/>
<path d="M1077.16 186.296V151.206H1177.96V473.396H1077.16V437.668C1074.61 441.496 1072.05 444.686 1069.5 447.238C1067.38 449.365 1065.89 450.853 1065.04 451.704C1055.68 461.061 1042.92 468.505 1026.76 474.034C1010.59 479.563 993.368 482.328 975.078 482.328C932.12 482.328 897.668 467.016 871.722 436.392C845.777 405.768 832.804 365.149 832.804 314.534C832.804 266.046 846.628 225.639 874.274 193.314C901.921 160.989 937.011 144.826 979.544 144.826C995.282 144.826 1012.08 147.591 1029.95 153.12C1041.43 157.373 1049.72 161.414 1054.83 165.242C1060.36 168.645 1067.8 175.663 1077.16 186.296ZM1010.17 226.49C989.327 226.49 972.526 234.359 959.766 250.096C947.006 265.833 940.626 286.462 940.626 311.982C940.626 337.077 947.006 357.28 959.766 372.592C972.526 387.904 989.54 395.56 1010.81 395.56C1021.86 395.56 1032.07 393.221 1041.43 388.542C1050.79 383.438 1057.38 377.058 1061.21 369.402C1065.04 361.746 1067.8 353.452 1069.5 344.52C1071.2 335.163 1072.05 323.041 1072.05 308.154C1072.05 292.842 1071.42 281.571 1070.14 274.34C1068.86 266.684 1066.1 259.666 1061.85 253.286C1050.36 235.422 1033.14 226.49 1010.17 226.49Z" fill="white"/>
<path d="M521.54 473.396V55.506L627.448 0.637939V267.96L713.578 151.206H837.988L716.768 294.756L860.956 473.396H726.976L627.448 333.674V473.396H521.54Z" fill="white"/>
<path d="M138.68 313.896C138.68 266.259 155.694 225.639 189.72 192.038C224.172 158.011 265.642 140.998 314.13 140.998C362.618 140.998 403.875 158.011 437.902 192.038C472.354 225.639 489.58 266.259 489.58 313.896C489.58 361.533 472.354 402.365 437.902 436.392C403.45 470.419 361.98 487.432 313.492 487.432C265.43 487.432 224.172 470.631 189.72 437.03C155.694 403.003 138.68 361.959 138.68 313.896ZM313.492 230.318C291.8 230.318 273.724 238.399 259.262 254.562C245.226 270.299 238.208 290.077 238.208 313.896C238.208 338.14 245.226 358.131 259.262 373.868C273.298 389.605 291.375 397.474 313.492 397.474C335.184 397.474 353.261 389.605 367.722 373.868C382.184 358.131 389.414 338.14 389.414 313.896C389.414 290.077 382.184 270.299 367.722 254.562C353.686 238.399 335.61 230.318 313.492 230.318Z" fill="white"/>
<path d="M0 473.396V54.868L105.908 0V473.396H0Z" fill="white"/>
</svg>
