<svg xmlns="http://www.w3.org/2000/svg" fill="none" viewBox="0 0 96 96"><path fill="#0070E0" d="M49.215 83.706a2.665 2.665 0 0 1-2.43 0C41.408 80.957 20 68.227 20 44.235V25.35c0-1.38 1.2-2.515 2.744-2.611 14.261-.893 19.03-5.634 22.915-9.798 1.159-1.242 3.294-1.257 4.473-.032 3.998 4.157 8.754 8.754 23.123 9.647 1.543.095 2.745 1.23 2.745 2.61v18.891c0 24.15-21.408 36.897-26.785 39.65z"/><path fill="#FAF8F5" d="M68 44c0 11.046-8.954 20-20 20s-20-8.954-20-20 8.954-20 20-20 20 8.954 20 20z"/><path fill="#003087" d="M52 46.93a8 8 0 1 0-8 0V52a4 4 0 0 0 8 0v-5.07z"/></svg>