<svg width="2377" height="489" viewBox="0 0 2377 489" fill="none" xmlns="http://www.w3.org/2000/svg">
<path d="M2101.17 454.222L2126.06 377.662C2150.3 394.675 2170.29 404.883 2186.03 408.286C2189.86 409.562 2194.75 410.625 2200.7 411.476C2206.66 412.327 2211.55 412.752 2215.38 412.752C2230.69 412.752 2243.02 409.349 2252.38 402.544C2261.74 395.739 2266.42 386.807 2266.42 375.748C2266.42 367.241 2263.86 360.861 2258.76 356.608C2253.66 352.355 2243.87 348.314 2229.41 344.486L2203.89 338.106L2177.1 329.812C2133.29 313.649 2111.38 285.79 2111.38 246.234C2111.38 215.185 2124.14 189.877 2149.66 170.312C2175.61 150.747 2209 140.964 2249.83 140.964C2265.99 140.964 2282.15 142.24 2298.32 144.792C2307.25 146.919 2314.9 148.833 2321.28 150.534C2332.34 153.937 2346.38 159.679 2363.39 167.76L2339.79 237.302C2328.73 231.347 2321.07 227.307 2316.82 225.18C2306.61 220.076 2296.61 216.248 2286.83 213.696C2277.47 210.719 2267.9 209.23 2258.12 209.23C2246.21 209.23 2236.43 212.207 2228.77 218.162C2221.54 223.691 2217.93 231.135 2217.93 240.492C2217.93 256.229 2230.9 267.288 2256.85 273.668L2283.64 280.686C2301.08 285.365 2318.52 291.532 2335.96 299.188C2348.72 306.419 2358.5 316.627 2365.31 329.812C2372.54 342.572 2376.15 357.033 2376.15 373.196C2376.15 408.073 2363.18 435.72 2337.23 456.136C2311.71 476.127 2276.84 486.122 2232.6 486.122C2214.74 486.122 2196.02 484.421 2176.46 481.018C2160.72 477.615 2148.81 474.638 2140.73 472.086C2133.07 469.109 2119.89 463.154 2101.17 454.222Z" fill="#010101"/>
<path d="M1978.13 183.71V56.11L2083.4 0.604004V474H1983.23V438.272L1971.75 451.67C1962.39 460.602 1949.42 468.045 1932.83 474C1916.24 479.955 1899.44 482.932 1882.43 482.932C1840.32 482.932 1805.87 466.982 1779.07 435.082C1752.28 403.182 1738.88 362.137 1738.88 311.948C1738.88 262.609 1752.28 222.415 1779.07 191.366C1806.29 159.891 1841.17 144.154 1883.71 144.154C1892.21 144.154 1900.51 145.005 1908.59 146.706C1917.09 148.407 1925.6 150.959 1934.11 154.362C1942.61 157.339 1949.63 160.742 1955.16 164.57C1961.12 168.398 1968.77 174.778 1978.13 183.71ZM1914.97 225.818C1894.98 225.818 1878.6 233.474 1865.84 248.786C1853.08 264.098 1846.7 284.301 1846.7 309.396C1846.7 335.767 1853.08 356.821 1865.84 372.558C1878.6 387.87 1895.83 395.526 1917.52 395.526C1958.35 395.526 1978.77 368.943 1978.77 315.776C1978.77 296.211 1977.92 282.175 1976.22 273.668C1974.51 264.736 1971.11 257.08 1966.01 250.7C1954.1 234.112 1937.08 225.818 1914.97 225.818Z" fill="#010101"/>
<path d="M1605.64 186.9V151.81H1706.45V474H1605.64V438.272C1603.09 442.1 1600.54 445.29 1597.99 447.842C1595.86 449.969 1594.37 451.457 1593.52 452.308C1584.16 461.665 1571.4 469.109 1555.24 474.638C1539.08 480.167 1521.85 482.932 1503.56 482.932C1460.6 482.932 1426.15 467.62 1400.21 436.996C1374.26 406.372 1361.29 365.753 1361.29 315.138C1361.29 266.65 1375.11 226.243 1402.76 193.918C1430.4 161.593 1465.49 145.43 1508.03 145.43C1523.77 145.43 1540.57 148.195 1558.43 153.724C1569.91 157.977 1578.21 162.018 1583.31 165.846C1588.84 169.249 1596.28 176.267 1605.64 186.9ZM1538.65 227.094C1517.81 227.094 1501.01 234.963 1488.25 250.7C1475.49 266.437 1469.11 287.066 1469.11 312.586C1469.11 337.681 1475.49 357.884 1488.25 373.196C1501.01 388.508 1518.02 396.164 1539.29 396.164C1550.35 396.164 1560.56 393.825 1569.91 389.146C1579.27 384.042 1585.86 377.662 1589.69 370.006C1593.52 362.35 1596.28 354.056 1597.99 345.124C1599.69 335.767 1600.54 323.645 1600.54 308.758C1600.54 293.446 1599.9 282.175 1598.62 274.944C1597.35 267.288 1594.58 260.27 1590.33 253.89C1578.85 236.026 1561.62 227.094 1538.65 227.094Z" fill="#010101"/>
<path d="M1222.61 474V55.472L1328.52 0.604004V474H1222.61Z" fill="#010101"/>
<path d="M1077.25 186.9V151.81H1178.05V474H1077.25V438.272C1074.7 442.1 1072.14 445.29 1069.59 447.842C1067.47 449.969 1065.98 451.457 1065.13 452.308C1055.77 461.665 1043.01 469.109 1026.85 474.638C1010.68 480.167 993.458 482.932 975.168 482.932C932.21 482.932 897.758 467.62 871.812 436.996C845.867 406.372 832.894 365.753 832.894 315.138C832.894 266.65 846.718 226.243 874.364 193.918C902.011 161.593 937.101 145.43 979.634 145.43C995.372 145.43 1012.17 148.195 1030.04 153.724C1041.52 157.977 1049.81 162.018 1054.92 165.846C1060.45 169.249 1067.89 176.267 1077.25 186.9ZM1010.26 227.094C989.417 227.094 972.616 234.963 959.856 250.7C947.096 266.437 940.716 287.066 940.716 312.586C940.716 337.681 947.096 357.884 959.856 373.196C972.616 388.508 989.63 396.164 1010.9 396.164C1021.95 396.164 1032.16 393.825 1041.52 389.146C1050.88 384.042 1057.47 377.662 1061.3 370.006C1065.13 362.35 1067.89 354.056 1069.59 345.124C1071.29 335.767 1072.14 323.645 1072.14 308.758C1072.14 293.446 1071.51 282.175 1070.23 274.944C1068.95 267.288 1066.19 260.27 1061.94 253.89C1050.45 236.026 1033.23 227.094 1010.26 227.094Z" fill="#010101"/>
<path d="M521.63 474V56.11L627.538 1.24194V268.564L713.668 151.81H838.078L716.858 295.36L861.046 474H727.066L627.538 334.278V474H521.63Z" fill="#010101"/>
<path d="M138.77 314.5C138.77 266.863 155.784 226.243 189.81 192.642C224.262 158.615 265.732 141.602 314.22 141.602C362.708 141.602 403.966 158.615 437.992 192.642C472.444 226.243 489.67 266.863 489.67 314.5C489.67 362.137 472.444 402.969 437.992 436.996C403.54 471.023 362.07 488.036 313.582 488.036C265.52 488.036 224.262 471.235 189.81 437.634C155.784 403.607 138.77 362.563 138.77 314.5ZM313.582 230.922C291.89 230.922 273.814 239.003 259.352 255.166C245.316 270.903 238.298 290.681 238.298 314.5C238.298 338.744 245.316 358.735 259.352 374.472C273.388 390.209 291.465 398.078 313.582 398.078C335.274 398.078 353.351 390.209 367.812 374.472C382.274 358.735 389.504 338.744 389.504 314.5C389.504 290.681 382.274 270.903 367.812 255.166C353.776 239.003 335.7 230.922 313.582 230.922Z" fill="#010101"/>
<path d="M0.0900269 474V55.472L105.998 0.604004V474H0.0900269Z" fill="#010101"/>
</svg>
